<svg width="32" height="32" viewBox="0 0 32 32" fill="none" xmlns="http://www.w3.org/2000/svg">
<path d="M15.7007 16.0064C15.7007 16.8713 16.4043 17.5749 17.2692 17.5749C18.134 17.5749 18.8376 16.8713 18.8376 16.0064C18.8376 15.1415 18.134 14.4379 17.2692 14.4379C16.4043 14.4379 15.7007 15.1415 15.7007 16.0064Z" fill="white"/>
<path d="M11.3861 16.0064C11.3861 16.8713 12.0897 17.5749 12.9546 17.5749C13.8194 17.5749 14.523 16.8713 14.523 16.0064C14.523 15.1415 13.8194 14.4379 12.9546 14.4379C12.0897 14.4379 11.3861 15.1415 11.3861 16.0064Z" fill="white"/>
<path fill-rule="evenodd" clip-rule="evenodd" d="M5 0H27C29.7614 0 32 2.23858 32 5V27C32 29.7614 29.7614 32 27 32H5C2.23859 32 0 29.7614 0 27V5C0 2.23858 2.23859 0 5 0ZM23.9615 14.3483L23.2382 15.0716L23.9663 15.7996C24.0211 15.8548 24.0075 15.9262 23.9258 16.012C23.8763 16.064 23.8278 16.0907 23.7818 16.0913H23.7803C23.7391 16.0913 23.7135 16.0702 23.7043 16.061L22.9766 15.3332L22.2649 16.0449C22.2481 16.0617 22.2185 16.0914 22.1721 16.0914C22.1308 16.0914 22.0859 16.0674 22.0386 16.02C22.0065 15.9879 21.9835 15.9578 21.9698 15.93C21.9595 15.9092 21.9544 15.8897 21.9545 15.8715C21.9549 15.8303 21.9809 15.8051 21.9982 15.7884L22.0032 15.7834L22.7122 15.0744L21.9883 14.3462C21.9301 14.2876 21.9447 14.2183 22.0346 14.128C22.1229 14.0398 22.1914 14.026 22.2499 14.0846L22.9737 14.8129L23.6987 14.0879C23.718 14.0686 23.7427 14.0489 23.7794 14.0489C23.8219 14.0492 23.8714 14.0773 23.9247 14.1323C24.0492 14.2604 23.9877 14.322 23.9615 14.3483ZM19.6693 15.1058C19.6693 14.5448 20.0892 14.0733 20.6252 14.0326C20.9277 14.01 21.2241 14.1197 21.4387 14.3337C21.6526 14.547 21.7623 14.8438 21.7398 15.1481C21.714 15.4984 21.494 15.8221 21.1656 15.9929C20.9734 16.0928 20.7793 16.1301 20.589 16.1037C20.4823 16.0888 20.4816 16.0336 20.4901 15.9101C20.5029 15.7265 20.569 15.7229 20.6465 15.7229H20.6522C20.9542 15.7229 21.1244 15.5782 21.2143 15.4567C21.3332 15.296 21.3592 15.1228 21.3592 15.0696C21.3592 14.8838 21.2807 14.7066 21.1439 14.5833C21.0046 14.4577 20.8254 14.3993 20.6391 14.4183C20.3145 14.4519 20.0602 14.7521 20.0602 15.1017V16.8799C20.0602 16.9827 19.982 17.0037 19.8647 17.0037C19.7475 17.0037 19.6693 16.9827 19.6693 16.8799V15.1058ZM8.46432 15.4902C8.76938 15.2554 9.14389 15.1532 9.52795 15.2084C10.1559 15.2983 10.6451 15.8023 10.7156 16.4342C10.7607 16.8379 10.6384 17.226 10.369 17.527C10.1032 17.8242 9.72278 17.9947 9.32526 17.9947C8.73828 17.9947 8.20911 17.6235 8.00845 17.071C7.9873 17.0126 7.99622 16.9481 8.14948 16.8923C8.31628 16.8317 8.35483 16.875 8.37766 16.9335C8.53177 17.3285 8.90186 17.6007 9.32532 17.6007C9.61115 17.6007 9.88477 17.478 10.0759 17.2641C10.2695 17.0475 10.3582 16.7682 10.3254 16.4776C10.2741 16.0221 9.89862 15.6502 9.43234 15.5931C9.04169 15.5453 8.63071 15.8091 8.4418 16.0813L8.43747 16.088C8.39642 16.1335 8.34189 16.1443 8.24796 16.1258C8.14069 16.1045 8.08307 16.0737 8.08307 15.9828V14.2487C8.08307 14.1454 8.14398 14.0523 8.25909 14.0523H10.2418C10.2894 14.0523 10.3616 14.0594 10.3616 14.2387C10.3616 14.4224 10.317 14.4336 10.2548 14.4336H8.46432V15.4902ZM15.2754 16.0064C15.2754 14.9071 16.1698 14.0128 17.2692 14.0128C18.3685 14.0128 19.2628 14.9071 19.2628 16.0064C19.2628 17.1057 18.3685 18 17.2692 18C16.1698 18 15.2754 17.1057 15.2754 16.0064ZM10.9608 16.0064C10.9608 14.9071 11.8552 14.0128 12.9546 14.0128C14.0539 14.0128 14.9482 14.9071 14.9482 16.0064C14.9482 17.1057 14.0539 18 12.9546 18C11.8552 18 10.9608 17.1057 10.9608 16.0064Z" fill="white"/>
</svg>
