<svg width="32" height="32" viewBox="0 0 32 32" fill="none" xmlns="http://www.w3.org/2000/svg">
<path d="M10.4714 12.3566V16.202C10.6322 16.2145 10.7808 16.2207 10.9171 16.2206H11.53C11.9796 16.2272 12.4276 16.1646 12.8582 16.0349C13.2263 15.9256 13.5553 15.7127 13.8059 15.4218C14.0653 15.0817 14.1938 14.6598 14.168 14.2329C14.1779 13.8736 14.0844 13.519 13.8986 13.2112C13.7034 12.9137 13.4213 12.6834 13.0906 12.5518C12.6588 12.3839 12.1975 12.3049 11.7345 12.3195C11.4373 12.3195 11.1742 12.3226 10.9451 12.3288C10.7156 12.3352 10.5577 12.3445 10.4714 12.3566Z" fill="white"/>
<path fill-rule="evenodd" clip-rule="evenodd" d="M5 0C2.23858 0 0 2.23858 0 5V27C0 29.7614 2.23858 32 5 32H27C29.7614 32 32 29.7614 32 27V5C32 2.23858 29.7614 0 27 0H5ZM19.5245 15.2826L18.2157 15.244C18.1289 15.2317 18.0855 15.1882 18.0855 15.114V13.4847C18.083 13.467 18.0847 13.449 18.0903 13.4321C18.096 13.4151 18.1055 13.3998 18.1181 13.3871C18.1308 13.3745 18.1461 13.365 18.1631 13.3594C18.18 13.3537 18.198 13.3521 18.2157 13.3546L19.5245 13.369V13.3326C19.5218 12.7768 19.5527 12.2215 19.6171 11.6695C19.6738 11.3448 19.7738 11.0293 19.9145 10.7313C20.1547 10.2323 20.5193 9.8037 20.9733 9.48664C21.5155 9.14107 22.1516 8.97233 22.7938 9.0037C22.9738 9.00276 23.1537 9.01205 23.3326 9.03152C23.5147 9.04723 23.6947 9.08149 23.8698 9.13375C23.9085 9.14674 23.942 9.17178 23.9654 9.2052C23.9888 9.23862 24.0009 9.27866 23.9999 9.31946V11.1586C23.9999 11.2454 23.9503 11.2763 23.8511 11.2515C23.7644 11.2392 23.5616 11.2329 23.4626 11.2329H23.1841C22.9324 11.229 22.6823 11.2732 22.4472 11.3629C22.2734 11.4572 22.141 11.6129 22.0757 11.7995C21.9855 12.0654 21.9445 12.3455 21.9549 12.6262V13.369H23.77C23.844 13.369 23.8906 13.3813 23.9092 13.4061C23.9301 13.4393 23.9399 13.4784 23.9372 13.5175V15.1526C23.9372 15.2394 23.8814 15.2827 23.77 15.2826H21.9549L21.9694 22.1785C21.969 22.2173 21.9595 22.2555 21.9417 22.2899C21.9231 22.3271 21.8767 22.3457 21.8022 22.3457H19.6876C19.5883 22.3457 19.539 22.2899 19.539 22.1785L19.5245 15.2826ZM8 22.128V10.2575C8 10.171 8.03726 10.1275 8.11154 10.1275C8.30936 10.1275 8.45235 10.1246 8.72496 10.1182C8.99732 10.1121 9.2915 10.1059 9.6075 10.0997C9.92325 10.0936 10.2576 10.0873 10.6106 10.0811C10.9636 10.0749 11.3135 10.0718 11.6601 10.0717C12.4671 10.051 13.2716 10.1705 14.0378 10.4248C14.6189 10.6213 15.1489 10.945 15.5891 11.3722C15.9623 11.7424 16.2507 12.1892 16.4344 12.6817C16.608 13.1611 16.696 13.6673 16.6943 14.1772C16.7294 15.0466 16.4888 15.9048 16.0069 16.6293C15.5458 17.2758 14.8974 17.7653 14.1494 18.0318C13.3156 18.332 12.4347 18.4799 11.5486 18.4684C11.276 18.4684 11.0841 18.4653 10.973 18.4591C10.8614 18.453 10.6942 18.4498 10.4714 18.4498V22.1094C10.4746 22.1321 10.4725 22.1552 10.4653 22.177C10.458 22.1987 10.4458 22.2185 10.4296 22.2347C10.4133 22.2509 10.3936 22.2632 10.3718 22.2704C10.3501 22.2777 10.3269 22.2798 10.3042 22.2766H8.13019C8.04339 22.2766 8 22.227 8 22.128Z" fill="white"/>
</svg>
