<svg width="32" height="32" viewBox="0 0 32 32" fill="none" xmlns="http://www.w3.org/2000/svg">
<path d="M12 14.3088L16 11.7624L20 14.3088L16 16.8553L12 14.3088Z" fill="white"/>
<path fill-rule="evenodd" clip-rule="evenodd" d="M5 0H27C29.7614 0 32 2.23858 32 5V27C32 29.7614 29.7614 32 27 32H5C2.23859 32 0 29.7614 0 27V5C0 2.23858 2.23859 0 5 0ZM12 14.3088L8 11.7624L12 9.216L16 11.7624L20 9.216L24 11.7624L20 14.3088L24 16.8553L20 19.4017L16 16.8553L12 19.4017L8 16.8553L12 14.3088ZM15.9894 17.7041L11.9894 20.2505L15.9894 22.7969L19.9894 20.2505L15.9894 17.7041Z" fill="white"/>
</svg>
