<svg width="32" height="32" viewBox="0 0 32 32" fill="none" xmlns="http://www.w3.org/2000/svg">
<path d="M14.9768 21.0654L12.9193 14.7329H10.0377L14.9768 21.0654Z" fill="white"/>
<path d="M18.9988 14.9958L17.0258 21.0668L17.4992 20.4574L21.9677 14.7329H19.0837L18.9988 14.9958Z" fill="white"/>
<path d="M22.2226 13.9749L20.7768 9.5224L19.3287 13.9749H22.2226Z" fill="white"/>
<path d="M18.2888 14.7301H13.7146L16.0001 21.7687L18.2888 14.7301Z" fill="white"/>
<path d="M12.6743 13.9749L11.2257 9.5224L9.78229 13.9749H12.6743Z" fill="white"/>
<path d="M8.76529 17.2227C8.77853 17.2637 8.80441 17.2994 8.83923 17.3247L14.0526 21.1121L9.39996 15.1473L8.76559 17.0967C8.75217 17.1376 8.75204 17.1818 8.76529 17.2227Z" fill="white"/>
<path d="M17.9476 21.1107L23.1614 17.3247C23.1963 17.2993 23.2221 17.263 23.2353 17.222C23.2484 17.1809 23.2482 17.1367 23.2346 17.0958L22.6002 15.1473L17.9651 21.0881L17.9476 21.1107Z" fill="white"/>
<path fill-rule="evenodd" clip-rule="evenodd" d="M0 5C0 2.23858 2.23858 0 5 0H27C29.7614 0 32 2.23858 32 5V27C32 29.7614 29.7614 32 27 32H5C2.23858 32 0 29.7614 0 27V5ZM23.1133 14.2845L23.9525 16.8631C24.0155 17.0556 24.0158 17.2631 23.9534 17.4559C23.891 17.6486 23.769 17.8165 23.6051 17.9355L16.2224 23.2966C16.1579 23.3443 16.08 23.3702 15.9998 23.3707C15.9196 23.3711 15.8413 23.346 15.7764 23.299L8.39505 17.9355C8.2312 17.8165 8.10928 17.6487 8.04678 17.4561C7.98425 17.2635 7.98441 17.0561 8.04718 16.8636L8.90152 14.2387L8.90396 14.2334C8.90536 14.2308 8.90671 14.2283 8.90671 14.2255L10.5918 9.0367C10.6361 8.90266 10.7215 8.78598 10.8359 8.70328C10.9503 8.62057 11.0879 8.57604 11.229 8.57602H11.2328C11.3729 8.57577 11.5095 8.62028 11.6226 8.70306C11.7357 8.78584 11.8194 8.90256 11.8615 9.03622L13.4687 13.9749H18.5338L20.1387 9.03622C20.1809 8.9021 20.2651 8.78503 20.3787 8.70221C20.4924 8.61939 20.6296 8.57516 20.7702 8.57602C20.9113 8.57506 21.049 8.61868 21.1638 8.70064C21.2785 8.78261 21.3645 8.89874 21.4093 9.03245L23.093 14.2151C23.102 14.2375 23.1088 14.2608 23.1133 14.2845Z" fill="white"/>
</svg>
