<svg width="32" height="32" viewBox="0 0 32 32" fill="none" xmlns="http://www.w3.org/2000/svg">
<path fill-rule="evenodd" clip-rule="evenodd" d="M5 0C2.23858 0 0 2.23858 0 5V27C0 29.7614 2.23858 32 5 32H27C29.7614 32 32 29.7614 32 27V5C32 2.23858 29.7614 0 27 0H5ZM16.0857 24C16.1943 20.4571 16.2857 18.84 17.5429 17.5429C18.84 16.2857 20.4571 16.2 24 16.0857C24 19.28 23.9886 21.6686 22.8457 22.8457C21.6686 23.9886 19.3886 24 16.0857 24ZM9.15429 22.8457C8.01143 21.6686 8 19.28 8 16.0857C11.5429 16.1943 13.16 16.2857 14.4571 17.5429C15.7143 18.84 15.8 20.4571 15.9143 24C12.6114 24 10.3314 23.9886 9.15429 22.8457ZM9.15429 9.15429C10.3314 8.01143 12.6171 8 15.9143 8C15.8057 11.5429 15.7143 13.16 14.4571 14.4571C13.16 15.7143 11.5429 15.8 8 15.9143C8 12.72 8.01143 10.3314 9.15429 9.15429ZM16.0857 8C16.1943 11.5429 16.2857 13.16 17.5429 14.4571C18.84 15.7143 20.4571 15.8 24 15.9143C24 12.72 23.9886 10.3314 22.8457 9.15429C21.6686 8.01143 19.3886 8 16.0857 8Z" fill="black"/>
</svg>
